<svg width="25" height="25" viewBox="0 0 25 25" fill="none" xmlns="http://www.w3.org/2000/svg">
<g clip-path="url(#clip0)">
<path d="M11.5598 11.5148C11.8211 11.2535 12.1754 11.1067 12.5449 11.1067C12.9145 11.1067 13.2688 11.2535 13.5301 11.5148C13.7914 11.7761 13.9382 12.1305 13.9382 12.5C13.9382 12.8695 13.7914 13.2238 13.5301 13.4851C13.2688 13.7464 12.9145 13.8932 12.5449 13.8932C12.1754 13.8932 11.8211 13.7464 11.5598 13.4851C11.2985 13.2238 11.1517 12.8695 11.1517 12.5C11.1517 12.1305 11.2985 11.7761 11.5598 11.5148ZM12.5449 8.84113C11.5746 8.84113 10.6439 9.2266 9.95776 9.91277C9.27159 10.5989 8.88611 11.5296 8.88611 12.5C8.88611 13.4703 9.27159 14.401 9.95776 15.0872C10.6439 15.7733 11.5746 16.1588 12.5449 16.1588C13.5153 16.1588 14.446 15.7733 15.1321 15.0872C15.8183 14.401 16.2038 13.4703 16.2038 12.5C16.2038 11.5296 15.8183 10.5989 15.1321 9.91277C14.446 9.2266 13.5153 8.84113 12.5449 8.84113Z" fill="black" stroke="white" stroke-width="0.75" stroke-linecap="square"/>
<path d="M12.5448 11.3041C12.2277 11.3041 11.9235 11.4301 11.6992 11.6544C11.4749 11.8787 11.3489 12.1829 11.3489 12.5C11.3489 12.8172 11.4749 13.1214 11.6992 13.3457C11.9235 13.57 12.2277 13.696 12.5448 13.696C12.862 13.696 13.1662 13.57 13.3905 13.3457C13.6148 13.1214 13.7408 12.8172 13.7408 12.5C13.7408 12.1829 13.6148 11.8787 13.3905 11.6544C13.1662 11.4301 12.862 11.3041 12.5448 11.3041Z" fill="black" stroke="white" stroke-width="0.75" stroke-linecap="square"/>
<path d="M12.5136 6.29614C12.2058 6.31308 11.9115 6.44813 11.6963 6.67499C11.4807 6.90224 11.3621 7.20337 11.3705 7.51257C11.3789 7.82177 11.5134 8.10896 11.7407 8.31184C11.9675 8.51437 12.2682 8.61667 12.576 8.59973C12.8839 8.58278 13.1781 8.44774 13.3934 8.22088C13.609 7.99362 13.7276 7.6925 13.7192 7.3833C13.7108 7.0741 13.5763 6.7869 13.349 6.58402C13.1222 6.38149 12.8215 6.27919 12.5136 6.29614Z" fill="black" stroke="white" stroke-width="0.75" stroke-linecap="square"/>
<path d="M12.5136 16.4003C12.2058 16.4172 11.9115 16.5523 11.6963 16.7791C11.4807 17.0064 11.3621 17.3075 11.3705 17.6167C11.3789 17.9259 11.5134 18.2131 11.7407 18.416C11.9675 18.6185 12.2682 18.7208 12.576 18.7039C12.8839 18.6869 13.1781 18.5519 13.3934 18.325C13.609 18.0977 13.7276 17.7966 13.7192 17.4874C13.7108 17.1782 13.5763 16.891 13.349 16.6881C13.1222 16.4856 12.8215 16.3833 12.5136 16.4003Z" fill="black" stroke="white" stroke-width="0.75" stroke-linecap="square"/>
<path d="M9.40789 7.10635C9.13732 7.26967 8.94101 7.53318 8.86299 7.83991C8.78492 8.14683 8.83178 8.47191 8.99451 8.74316C9.15725 9.0144 9.42167 9.20816 9.72859 9.28269C10.0353 9.35717 10.3594 9.30658 10.6299 9.14325C10.9005 8.97993 11.0968 8.71642 11.1748 8.40969C11.2529 8.10277 11.206 7.77769 11.0433 7.50644C10.8806 7.2352 10.6162 7.04144 10.3092 6.96692C10.0025 6.89243 9.67846 6.94302 9.40789 7.10635Z" fill="black" stroke="white" stroke-width="0.75" stroke-linecap="square"/>
<path d="M14.4599 15.8567C14.1893 16.02 13.993 16.2835 13.915 16.5903C13.8369 16.8972 13.8838 17.2223 14.0465 17.4935C14.2092 17.7648 14.4737 17.9585 14.7806 18.0331C15.0873 18.1075 15.4114 18.0569 15.6819 17.8936C15.9525 17.7303 16.1488 17.4668 16.2268 17.1601C16.3049 16.8531 16.258 16.5281 16.0953 16.2568C15.9326 15.9856 15.6682 15.7918 15.3612 15.7173C15.0545 15.6428 14.7305 15.6934 14.4599 15.8567Z" fill="black" stroke="white" stroke-width="0.75" stroke-linecap="square"/>
<path d="M7.10815 9.42939C6.95923 9.71233 6.92455 10.0419 7.01534 10.3466C7.10629 10.652 7.31609 10.9076 7.6012 11.0539C7.88631 11.2002 8.21876 11.2227 8.52409 11.1207C8.82887 11.0189 9.08204 10.8015 9.23095 10.5185C9.37986 10.2356 9.41454 9.90607 9.32376 9.60129C9.2328 9.29596 9.023 9.04033 8.73789 8.89405C8.45278 8.74777 8.12034 8.72518 7.815 8.82719C7.51023 8.92902 7.25706 9.14644 7.10815 9.42939Z" fill="black" stroke="white" stroke-width="0.75" stroke-linecap="square"/>
<path d="M15.8588 14.4814C15.7098 14.7644 15.6752 15.0939 15.7659 15.3987C15.8569 15.704 16.0667 15.9597 16.3518 16.1059C16.6369 16.2522 16.9694 16.2748 17.2747 16.1728C17.5795 16.071 17.8326 15.8535 17.9816 15.5706C18.1305 15.2876 18.1652 14.9581 18.0744 14.6534C17.9834 14.348 17.7736 14.0924 17.4885 13.9461C17.2034 13.7998 16.8709 13.7772 16.5656 13.8793C16.2608 13.9811 16.0077 14.1985 15.8588 14.4814Z" fill="black" stroke="white" stroke-width="0.75" stroke-linecap="square"/>
<path d="M6.31851 12.5647C6.32689 12.8739 6.46142 13.1611 6.68868 13.3639C6.91554 13.5665 7.2162 13.6688 7.52406 13.6518C7.83191 13.6349 8.12615 13.4998 8.34138 13.273C8.55698 13.0457 8.67558 12.7446 8.66721 12.4354C8.65883 12.1262 8.5243 11.839 8.29704 11.6361C8.07018 11.4336 7.76952 11.3313 7.46166 11.3482C7.1538 11.3652 6.85957 11.5002 6.64434 11.7271C6.42874 11.9543 6.31014 12.2555 6.31851 12.5647Z" fill="black" stroke="white" stroke-width="0.75" stroke-linecap="square"/>
<path d="M16.4225 12.5647C16.4309 12.8739 16.5654 13.1611 16.7927 13.3639C17.0195 13.5665 17.3202 13.6688 17.6281 13.6518C17.9359 13.6349 18.2302 13.4998 18.4454 13.273C18.661 13.0457 18.7796 12.7446 18.7712 12.4354C18.7628 12.1262 18.6283 11.839 18.401 11.6361C18.1742 11.4336 17.8735 11.3313 17.5657 11.3482C17.2578 11.3652 16.9636 11.5002 16.7483 11.7271C16.5327 11.9543 16.4141 12.2555 16.4225 12.5647Z" fill="black" stroke="white" stroke-width="0.75" stroke-linecap="square"/>
<path d="M7.14538 15.6444C7.30811 15.9156 7.57253 16.1094 7.87945 16.1839C8.18618 16.2584 8.51023 16.2078 8.7808 16.0445C9.05137 15.8811 9.24768 15.6176 9.3257 15.3109C9.40377 15.004 9.35691 14.6789 9.19418 14.4077C9.03145 14.1364 8.76702 13.9427 8.46011 13.8681C8.15338 13.7936 7.82932 13.8442 7.55876 14.0076C7.28819 14.1709 7.09188 14.4344 7.01386 14.7411C6.93579 15.048 6.98265 15.3731 7.14538 15.6444Z" fill="black" stroke="white" stroke-width="0.75" stroke-linecap="square"/>
<path d="M15.8957 10.5924C16.0585 10.8636 16.3229 11.0574 16.6298 11.1319C16.9365 11.2064 17.2606 11.1558 17.5312 10.9925C17.8017 10.8291 17.998 10.5656 18.0761 10.2589C18.1541 9.95198 18.1073 9.62689 17.9445 9.35565C17.7818 9.08441 17.5174 8.89065 17.2105 8.81612C16.9037 8.74164 16.5797 8.79223 16.3091 8.95555C16.0386 9.11888 15.8422 9.38239 15.7642 9.68912C15.6862 9.99604 15.733 10.3211 15.8957 10.5924Z" fill="black" stroke="white" stroke-width="0.75" stroke-linecap="square"/>
<path d="M9.4505 17.9551C9.73561 18.1014 10.0681 18.124 10.3734 18.022C10.6782 17.9201 10.9313 17.7027 11.0803 17.4198C11.2292 17.1368 11.2638 16.8073 11.1731 16.5025C11.0821 16.1972 10.8723 15.9416 10.5872 15.7953C10.3021 15.649 9.96964 15.6264 9.66431 15.7284C9.35953 15.8303 9.10636 16.0477 8.95745 16.3306C8.80854 16.6136 8.77386 16.9431 8.86464 17.2479C8.95559 17.5532 9.16539 17.8088 9.4505 17.9551Z" fill="black" stroke="white" stroke-width="0.75" stroke-linecap="square"/>
<path d="M14.5025 9.20467C14.7876 9.35096 15.1201 9.37354 15.4254 9.27153C15.7302 9.16971 15.9833 8.95228 16.1323 8.66934C16.2812 8.38639 16.3158 8.05687 16.2251 7.7521C16.1341 7.44676 15.9243 7.19114 15.6392 7.04485C15.3541 6.89857 15.0216 6.87599 14.7163 6.978C14.4115 7.07982 14.1584 7.29724 14.0095 7.58019C13.8605 7.86314 13.8259 8.19266 13.9166 8.49743C14.0076 8.80277 14.2174 9.05839 14.5025 9.20467Z" fill="black" stroke="white" stroke-width="0.75" stroke-linecap="square"/>
<path d="M8.82669 4.56067C8.54228 4.69849 8.323 4.94315 8.21763 5.24159C8.11223 5.54016 8.12953 5.86814 8.26667 6.1531C8.4038 6.43806 8.64901 6.6556 8.94759 6.75842C9.24603 6.8612 9.57333 6.841 9.85774 6.70319C10.1422 6.56537 10.3614 6.32072 10.4668 6.02227C10.5722 5.7237 10.5549 5.39572 10.4178 5.11076C10.2806 4.8258 10.0354 4.60826 9.73684 4.50544C9.4384 4.40267 9.1111 4.42286 8.82669 4.56067Z" fill="black" stroke="white" stroke-width="0.75" stroke-linecap="square"/>
<path d="M15.232 18.2968C14.9475 18.4346 14.7283 18.6792 14.6229 18.9777C14.5175 19.2762 14.5348 19.6042 14.6719 19.8892C14.8091 20.1741 15.0543 20.3917 15.3529 20.4945L15.4751 20.1395L15.3529 20.4945C15.6513 20.5973 15.9786 20.5771 16.263 20.4393C16.5474 20.3015 16.7667 20.0568 16.8721 19.7584C16.9775 19.4598 16.9602 19.1318 16.823 18.8468C16.6859 18.5619 16.4407 18.3443 16.1421 18.2415C15.8437 18.1388 15.5164 18.1589 15.232 18.2968Z" fill="black" stroke="white" stroke-width="0.75" stroke-linecap="square"/>
<path d="M6.32058 6.32842C6.10338 6.55941 5.98387 6.86644 5.9904 7.18336C5.99694 7.50065 6.12947 7.80194 6.36097 8.01934C6.59246 8.23674 6.90159 8.35022 7.21888 8.33703C7.5358 8.32387 7.83502 8.1856 8.05222 7.95462C8.26943 7.72363 8.38893 7.4166 8.3824 7.09968C8.37587 6.78239 8.24334 6.4811 8.01184 6.2637C7.78034 6.0463 7.47121 5.93282 7.15392 5.946C6.83701 5.95917 6.53778 6.09744 6.32058 6.32842Z" fill="black" stroke="white" stroke-width="0.75" stroke-linecap="square"/>
<path d="M17.0377 17.0454C16.8205 17.2764 16.701 17.5834 16.7076 17.9003C16.7141 18.2176 16.8466 18.5189 17.0781 18.7363C17.3096 18.9537 17.6188 19.0672 17.936 19.054L17.9205 18.6795L17.936 19.054C18.253 19.0408 18.5522 18.9026 18.7694 18.6716C18.9866 18.4406 19.1061 18.1336 19.0996 17.8167C19.093 17.4994 18.9605 17.1981 18.729 16.9807C18.4975 16.7633 18.1884 16.6498 17.8711 16.663C17.5542 16.6762 17.2549 16.8144 17.0377 17.0454Z" fill="black" stroke="white" stroke-width="0.75" stroke-linecap="square"/>
<path d="M4.5656 8.85454C4.44202 9.15095 4.43645 9.48316 4.55433 9.77901C4.67245 10.0755 4.90531 10.3113 5.20435 10.4305C5.50338 10.5496 5.83855 10.5401 6.13501 10.4088C6.43086 10.2778 6.66443 10.0365 6.78802 9.74004C6.9116 9.44363 6.91717 9.11143 6.79929 8.81558C6.68117 8.51912 6.44831 8.28327 6.14927 8.16413C5.85023 8.04498 5.51507 8.0545 5.21861 8.18578C4.92276 8.31678 4.68919 8.55813 4.5656 8.85454Z" fill="black" stroke="white" stroke-width="0.75" stroke-linecap="square"/>
<path d="M18.3018 15.2599C18.1782 15.5563 18.1727 15.8885 18.2905 16.1843C18.4087 16.4808 18.6415 16.7166 18.9406 16.8358C19.2396 16.9549 19.5748 16.9454 19.8712 16.8141C20.1671 16.6831 20.4006 16.4418 20.5242 16.1454C20.6478 15.849 20.6534 15.5168 20.5355 15.2209C20.4174 14.9245 20.1845 14.6886 19.8855 14.5695C19.5864 14.4503 19.2513 14.4598 18.9548 14.5911C18.659 14.7221 18.4254 14.9635 18.3018 15.2599Z" fill="black" stroke="white" stroke-width="0.75" stroke-linecap="square"/>
<path d="M3.7739 11.8445C3.75809 12.1734 3.86749 12.4915 4.08317 12.7281C4.29938 12.9653 4.60536 13.1012 4.93514 13.0999C5.26492 13.0985 5.58408 12.96 5.82318 12.7209C6.06169 12.4824 6.20172 12.1632 6.21752 11.8344C6.23332 11.5055 6.12393 11.1874 5.90825 10.9507C5.69204 10.7135 5.38606 10.5776 5.05628 10.579C4.7265 10.5804 4.40734 10.7189 4.16824 10.958C3.92972 11.1965 3.7897 11.5157 3.7739 11.8445Z" fill="black" stroke="white" stroke-width="0.75" stroke-linecap="square"/>
<path d="M18.8723 13.1655C18.8565 13.4943 18.9659 13.8125 19.1816 14.0491C19.3978 14.2863 19.7037 14.4222 20.0335 14.4208C20.3633 14.4195 20.6825 14.281 20.9216 14.0419L20.9216 14.0419C21.1601 13.8034 21.3001 13.4842 21.3159 13.1553C21.3317 12.8265 21.2223 12.5084 21.0066 12.2717C20.7904 12.0345 20.4845 11.8986 20.1547 11.9C19.8249 11.9014 19.5057 12.0399 19.2666 12.279C19.0281 12.5175 18.8881 12.8367 18.8723 13.1655Z" fill="black" stroke="white" stroke-width="0.75" stroke-linecap="square"/>
<path d="M4.07183 14.7751C4.15469 15.0808 4.35577 15.3408 4.63065 15.498C4.90549 15.6552 5.2316 15.6966 5.53723 15.6135C5.84287 15.5303 6.10326 15.3293 6.26103 15.0544C6.41882 14.7796 6.46102 14.4534 6.37816 14.1476C6.29529 13.8418 6.09421 13.5818 5.81934 13.4247C5.54449 13.2675 5.21839 13.2261 4.91275 13.3092C4.60711 13.3924 4.34672 13.5934 4.18895 13.8682C4.03117 14.1431 3.98896 14.4693 4.07183 14.7751Z" fill="black" stroke="white" stroke-width="0.75" stroke-linecap="square"/>
<path d="M18.7116 10.8523C18.7945 11.1581 18.9955 11.4181 19.2704 11.5753C19.5453 11.7324 19.8714 11.7739 20.177 11.6907C20.4826 11.6076 20.743 11.4066 20.9008 11.1317C21.0586 10.8568 21.1008 10.5306 21.0179 10.2249C20.9351 9.91912 20.734 9.6591 20.4591 9.50193C20.1843 9.34478 19.8582 9.30332 19.5525 9.38647C19.2469 9.46962 18.9865 9.67064 18.8287 9.94549L19.1538 10.1321L18.8287 9.94549C18.6709 10.2204 18.6287 10.5466 18.7116 10.8523Z" fill="black" stroke="white" stroke-width="0.75" stroke-linecap="square"/>
<path d="M5.37179 17.5571C5.55889 17.8125 5.84044 17.9809 6.15329 18.0266C6.46588 18.0722 6.78414 17.9917 7.03882 17.8042C7.29349 17.6168 7.4654 17.3366 7.51554 17.024C7.56571 16.7111 7.48968 16.3915 7.30258 16.1361C7.11548 15.8807 6.83393 15.7123 6.52109 15.6667C6.20849 15.621 5.89023 15.7015 5.63556 15.889C5.38088 16.0764 5.20897 16.3567 5.15883 16.6693L5.5287 16.7286L5.15883 16.6693C5.10866 16.9821 5.18469 17.3018 5.37179 17.5571Z" fill="black" stroke="white" stroke-width="0.75" stroke-linecap="square"/>
<path d="M17.7872 8.86384C17.9743 9.11921 18.2558 9.28761 18.5687 9.33327C18.8813 9.3789 19.1995 9.29839 19.4542 9.11095C19.7089 8.92351 19.8808 8.64326 19.9309 8.33066C19.9811 8.01782 19.9051 7.69816 19.718 7.4428C19.5309 7.18743 19.2493 7.01903 18.9365 6.97337C18.6239 6.92774 18.3056 7.00825 18.051 7.19569C17.7963 7.38313 17.6244 7.66338 17.5742 7.97598C17.5241 8.28882 17.6001 8.60848 17.7872 8.86384Z" fill="black" stroke="white" stroke-width="0.75" stroke-linecap="square"/>
<path d="M7.53873 19.7271C7.80787 19.8989 8.13504 19.9527 8.44683 19.8802C8.75812 19.8078 9.02884 19.6156 9.20191 19.3481C9.37499 19.0806 9.43851 18.7561 9.37544 18.4449C9.31228 18.1331 9.12699 17.8599 8.85785 17.6881C8.58871 17.5164 8.26154 17.4625 7.94975 17.5351C7.63847 17.6074 7.36774 17.7996 7.19467 18.0672C7.02159 18.3347 6.95808 18.6591 7.02114 18.9704C7.08431 19.2822 7.26959 19.5554 7.53873 19.7271Z" fill="black" stroke="white" stroke-width="0.75" stroke-linecap="square"/>
<path d="M16.2318 7.31191C16.501 7.48366 16.8282 7.53751 17.1399 7.465C17.4512 7.39261 17.722 7.20041 17.895 6.93288C18.0681 6.66536 18.1316 6.34093 18.0686 6.02964C18.0054 5.71786 17.8201 5.44468 17.551 5.27293C17.2818 5.10117 16.9547 5.04732 16.6429 5.11983C16.3316 5.19222 16.0609 5.38443 15.8878 5.65195C15.7147 5.91947 15.6512 6.24391 15.7143 6.5552L16.0829 6.48044L15.7143 6.5552C15.7774 6.86698 15.9627 7.14016 16.2318 7.31191Z" fill="black" stroke="white" stroke-width="0.75" stroke-linecap="square"/>
<path d="M10.3141 21.0385C10.6345 21.0985 10.9674 21.0223 11.2391 20.8333C11.5101 20.6447 11.6989 20.3593 11.7691 20.0418C11.8393 19.7242 11.7866 19.3937 11.6172 19.1227C11.4474 18.8509 11.1733 18.6611 10.8529 18.6012C10.5324 18.5412 10.1996 18.6174 9.92786 18.8064C9.65686 18.995 9.46806 19.2804 9.39786 19.5979C9.32766 19.9155 9.38031 20.246 9.54973 20.517L9.8725 20.3145L9.54973 20.517C9.71959 20.7888 9.99363 20.9786 10.3141 21.0385Z" fill="black" stroke="white" stroke-width="0.75" stroke-linecap="square"/>
<path d="M14.2368 6.39877C14.5573 6.45876 14.8901 6.38256 15.1618 6.1935C15.4328 6.00494 15.6216 5.71958 15.6918 5.40202C15.762 5.08445 15.7094 4.75389 15.5399 4.4829C15.3701 4.21118 15.096 4.02138 14.7756 3.96139C14.4551 3.90141 14.1223 3.9776 13.8506 4.16666C13.5796 4.35522 13.3908 4.64058 13.3206 4.95815C13.2504 5.27571 13.303 5.60627 13.4725 5.87727L13.7952 5.67477L13.4725 5.87727C13.6423 6.14899 13.9164 6.33879 14.2368 6.39877Z" fill="black" stroke="white" stroke-width="0.75" stroke-linecap="square"/>
<path d="M13.326 21.2204C13.6374 21.1852 13.9244 21.029 14.1235 20.7849C14.3227 20.5405 14.4175 20.228 14.3853 19.9159C14.3532 19.6037 14.1971 19.3195 13.9527 19.1253L13.7182 19.4204L13.9527 19.1253C13.7085 18.9313 13.3964 18.8429 13.0849 18.8781C12.7735 18.9133 12.4865 19.0695 12.2874 19.3136C12.0882 19.558 11.9935 19.8705 12.0256 20.1827C12.0577 20.4948 12.2139 20.779 12.4582 20.9732C12.7024 21.1672 13.0146 21.2556 13.326 21.2204Z" fill="black" stroke="white" stroke-width="0.75" stroke-linecap="square"/>
<path d="M12.0049 6.12189C12.3164 6.08668 12.6034 5.93054 12.8025 5.68637C13.0017 5.44203 13.0964 5.12946 13.0643 4.81735C13.0322 4.50523 12.876 4.22103 12.6317 4.02684L12.3971 4.32185L12.6317 4.02684C12.3875 3.83278 12.0753 3.74439 11.7639 3.7796C11.4525 3.81481 11.1654 3.97095 10.9664 4.21512C10.7672 4.45946 10.6724 4.77203 10.7045 5.08414C10.7367 5.39626 10.8928 5.68046 11.1372 5.87465C11.3813 6.0687 11.6935 6.1571 12.0049 6.12189Z" fill="black" stroke="white" stroke-width="0.75" stroke-linecap="square"/>
<path d="M12.5136 21.4523C12.2058 21.4693 11.9115 21.6043 11.6963 21.8312C11.4807 22.0584 11.3621 22.3596 11.3705 22.6688C11.3789 22.978 11.5134 23.2651 11.7407 23.468C11.9675 23.6706 12.2682 23.7729 12.576 23.7559C12.8839 23.739 13.1781 23.6039 13.3934 23.3771C13.609 23.1498 13.7276 22.8487 13.7192 22.5395C13.7108 22.2303 13.5763 21.9431 13.349 21.7402C13.1222 21.5377 12.8215 21.4354 12.5136 21.4523Z" fill="black" stroke="white" stroke-width="0.75" stroke-linecap="square"/>
<path d="M12.5136 1.24401C12.2058 1.26096 11.9115 1.396 11.6963 1.62286C11.4807 1.85012 11.3621 2.15124 11.3705 2.46044C11.3789 2.76964 11.5134 3.05683 11.7407 3.25972L11.9941 2.97631L11.7407 3.25972C11.9675 3.46224 12.2682 3.56455 12.576 3.5476C12.8839 3.53066 13.1781 3.39561 13.3934 3.16875C13.609 2.94149 13.7276 2.64037 13.7192 2.33117C13.7108 2.02197 13.5763 1.73478 13.349 1.5319C13.1222 1.32937 12.8215 1.22707 12.5136 1.24401Z" fill="black" stroke="white" stroke-width="0.75" stroke-linecap="square"/>
<path d="M14.8478 21.1076C14.5421 21.1907 14.2817 21.3918 14.124 21.6666C13.9662 21.9415 13.924 22.2677 14.0068 22.5734C14.0897 22.8792 14.2908 23.1392 14.5657 23.2964C14.8405 23.4535 15.1666 23.495 15.4722 23.4118C15.7779 23.3287 16.0383 23.1277 16.196 22.8528C16.3538 22.578 16.396 22.2518 16.3132 21.946C16.2303 21.6402 16.0292 21.3802 15.7544 21.223C15.4795 21.0659 15.1534 21.0244 14.8478 21.1076Z" fill="black" stroke="white" stroke-width="0.75" stroke-linecap="square"/>
<path d="M9.61742 1.58812C9.31178 1.67127 9.05139 1.87228 8.89362 2.14713C8.73583 2.422 8.69363 2.74821 8.7765 3.05397C8.85936 3.35973 9.06044 3.61975 9.33531 3.77692L9.52154 3.45122L9.33531 3.77692C9.61016 3.93407 9.93626 3.97553 10.2419 3.89238C10.5475 3.80922 10.8079 3.60821 10.9657 3.33336C11.1235 3.05849 11.1657 2.73228 11.0828 2.42652C11 2.12076 10.7989 1.86074 10.524 1.70358C10.2492 1.54642 9.92306 1.50497 9.61742 1.58812Z" fill="black" stroke="white" stroke-width="0.75" stroke-linecap="square"/>
<path d="M16.986 20.232C16.7154 20.3953 16.5191 20.6588 16.4411 20.9655C16.363 21.2724 16.4099 21.5975 16.5726 21.8688C16.7354 22.14 16.9998 22.3338 17.3067 22.4083C17.6134 22.4828 17.9375 22.4322 18.2081 22.2689C18.4786 22.1055 18.6749 21.842 18.753 21.5353C18.831 21.2284 18.7842 20.9033 18.6214 20.6321C18.4587 20.3608 18.1943 20.1671 17.8874 20.0925C17.5806 20.018 17.2566 20.0686 16.986 20.232Z" fill="black" stroke="white" stroke-width="0.75" stroke-linecap="square"/>
<path d="M6.88189 2.7311C6.61132 2.89442 6.41501 3.15794 6.33699 3.46467C6.25892 3.77158 6.30578 4.09667 6.46851 4.36791C6.63124 4.63916 6.89567 4.83291 7.20258 4.90744L7.2912 4.54254L7.20258 4.90744C7.50931 4.98192 7.83337 4.93133 8.10393 4.76801C8.3745 4.60469 8.57081 4.34118 8.64883 4.03445C8.7269 3.72753 8.68004 3.40244 8.51731 3.1312C8.35458 2.85996 8.09016 2.6662 7.78324 2.59167C7.47651 2.51719 7.15246 2.56778 6.88189 2.7311Z" fill="black" stroke="white" stroke-width="0.75" stroke-linecap="square"/>
<path d="M18.8236 18.8316C18.6064 19.0626 18.4869 19.3696 18.4935 19.6865C18.5 20.0038 18.6325 20.3051 18.864 20.5225C19.0955 20.7399 19.4046 20.8534 19.7219 20.8402C20.0388 20.827 20.3381 20.6888 20.5553 20.4578C20.7725 20.2268 20.892 19.9198 20.8855 19.6029C20.8789 19.2856 20.7464 18.9843 20.5149 18.7669C20.2834 18.5495 19.9743 18.436 19.657 18.4492C19.3401 18.4623 19.0408 18.6006 18.8236 18.8316Z" fill="black" stroke="white" stroke-width="0.75" stroke-linecap="square"/>
<path d="M4.53433 4.54217C4.31712 4.77315 4.19762 5.08019 4.20415 5.39711C4.21068 5.71439 4.34321 6.01568 4.57471 6.23308C4.80621 6.45048 5.11534 6.56396 5.43263 6.55078C5.74954 6.53761 6.04877 6.39935 6.26597 6.16836C6.48317 5.93738 6.60268 5.63034 6.59615 5.31342C6.58961 4.99613 6.45708 4.69485 6.22559 4.47745C5.99409 4.26005 5.68496 4.14657 5.36767 4.15975C5.05075 4.17292 4.75153 4.31118 4.53433 4.54217Z" fill="black" stroke="white" stroke-width="0.75" stroke-linecap="square"/>
<path d="M20.2339 17.0075C20.085 17.2905 20.0503 17.62 20.1411 17.9248C20.232 18.2301 20.4418 18.4857 20.7269 18.632C21.012 18.7783 21.3445 18.8009 21.6498 18.6988C21.9546 18.597 22.2078 18.3796 22.3567 18.0967C22.5056 17.8137 22.5403 17.4842 22.4495 17.1794C22.3585 16.8741 22.1487 16.6185 21.8636 16.4722C21.5785 16.3259 21.2461 16.3033 20.9407 16.4053C20.636 16.5071 20.3828 16.7246 20.2339 17.0075Z" fill="black" stroke="white" stroke-width="0.75" stroke-linecap="square"/>
<path d="M2.73315 6.90338C2.58423 7.18633 2.54955 7.51585 2.64034 7.82063C2.73129 8.12596 2.94109 8.38159 3.2262 8.52787C3.51131 8.67415 3.84376 8.69673 4.14909 8.59472L4.03076 8.24094L4.14909 8.59472C4.45387 8.4929 4.70704 8.27548 4.85595 7.99253C5.00486 7.70959 5.03954 7.38006 4.94875 7.07529C4.8578 6.76996 4.648 6.51433 4.36289 6.36805C4.07778 6.22177 3.74534 6.19918 3.44 6.30119C3.13523 6.40302 2.88206 6.62044 2.73315 6.90338Z" fill="black" stroke="white" stroke-width="0.75" stroke-linecap="square"/>
<path d="M21.1192 14.8932C21.049 15.2107 21.1016 15.5413 21.271 15.8123C21.4409 16.084 21.7149 16.2738 22.0354 16.3338C22.3558 16.3938 22.6887 16.3176 22.9604 16.1285C23.2314 15.94 23.4202 15.6546 23.4904 15.337C23.5606 15.0195 23.5079 14.6889 23.3385 14.4179C23.1687 14.1462 22.8946 13.9564 22.5742 13.8964C22.2537 13.8364 21.9209 13.9126 21.6492 14.1017C21.3782 14.2902 21.1894 14.5756 21.1192 14.8932Z" fill="black" stroke="white" stroke-width="0.75" stroke-linecap="square"/>
<path d="M1.59939 9.66289C1.5292 9.98045 1.58185 10.311 1.75126 10.582C1.92112 10.8537 2.19516 11.0435 2.51562 11.1035C2.83607 11.1635 3.16891 11.0873 3.44062 10.8982C3.71162 10.7097 3.90042 10.4243 3.97062 10.1068C4.04082 9.78919 3.98817 9.45863 3.81875 9.18763C3.64889 8.91591 3.37485 8.72612 3.0544 8.66613C2.73394 8.60614 2.40111 8.68234 2.12939 8.8714C1.85839 9.05996 1.66959 9.34532 1.59939 9.66289Z" fill="black" stroke="white" stroke-width="0.75" stroke-linecap="square"/>
<path d="M21.4746 12.5647C21.483 12.8739 21.6175 13.1611 21.8448 13.3639C22.0717 13.5665 22.3723 13.6688 22.6802 13.6518C22.988 13.6349 23.2823 13.4998 23.4975 13.273C23.7131 13.0457 23.8317 12.7446 23.8233 12.4354C23.815 12.1262 23.6804 11.839 23.4532 11.6361C23.2263 11.4336 22.9256 11.3313 22.6178 11.3482C22.3099 11.3652 22.0157 11.5002 21.8005 11.7271C21.5849 11.9543 21.4663 12.2555 21.4746 12.5647Z" fill="black" stroke="white" stroke-width="0.75" stroke-linecap="square"/>
<path d="M1.26651 12.5647C1.27488 12.8739 1.40942 13.1611 1.63668 13.3639C1.86354 13.5665 2.1642 13.6688 2.47206 13.6518C2.77991 13.6349 3.07414 13.4998 3.28937 13.273C3.50498 13.0457 3.62358 12.7446 3.6152 12.4354C3.60683 12.1262 3.47229 11.839 3.24504 11.6361C3.01818 11.4336 2.71751 11.3313 2.40966 11.3482C2.1018 11.3652 1.80757 11.5002 1.59234 11.7271C1.37673 11.9543 1.25813 12.2555 1.26651 12.5647Z" fill="black" stroke="white" stroke-width="0.75" stroke-linecap="square"/>
<path d="M21.1515 10.1986C21.2344 10.5043 21.4355 10.7644 21.7104 10.9215C21.9852 11.0787 22.3113 11.1201 22.6169 11.037C22.9226 10.9538 23.183 10.7528 23.3407 10.478C23.4985 10.2031 23.5407 9.87689 23.4579 9.57113C23.375 9.26537 23.1739 9.00535 22.8991 8.84818C22.6242 8.69103 22.2981 8.64958 21.9925 8.73273C21.6868 8.81588 21.4264 9.01689 21.2687 9.29174L21.5937 9.47834L21.2687 9.29174C21.1109 9.56661 21.0687 9.89282 21.1515 10.1986Z" fill="black" stroke="white" stroke-width="0.75" stroke-linecap="square"/>
<path d="M1.63189 15.4289C1.71475 15.7346 1.91583 15.9946 2.1907 16.1518C2.46555 16.309 2.79165 16.3504 3.09729 16.2673C3.40293 16.1841 3.66332 15.9831 3.82109 15.7083C3.97888 15.4334 4.02108 15.1072 3.93821 14.8014C3.85535 14.4957 3.65427 14.2356 3.3794 14.0785C3.10455 13.9213 2.77845 13.8799 2.47281 13.963C2.16717 14.0462 1.90678 14.2472 1.74901 14.522C1.59123 14.7969 1.54902 15.1231 1.63189 15.4289Z" fill="black" stroke="white" stroke-width="0.75" stroke-linecap="square"/>
<path d="M20.271 8.06624C20.4337 8.33748 20.6981 8.53124 21.0051 8.60577C21.3118 8.68025 21.6358 8.62966 21.9064 8.46634C22.177 8.30302 22.3733 8.0395 22.4513 7.73277C22.5294 7.42586 22.4825 7.10077 22.3198 6.82953C22.1571 6.55829 21.8926 6.36453 21.5857 6.29C21.279 6.21552 20.9549 6.26611 20.6844 6.42943C20.4138 6.59275 20.2175 6.85627 20.1395 7.16299C20.0614 7.46991 20.1083 7.795 20.271 8.06624Z" fill="black" stroke="white" stroke-width="0.75" stroke-linecap="square"/>
<path d="M2.77001 18.1704C2.93275 18.4416 3.19717 18.6354 3.50409 18.7099C3.81081 18.7844 4.13487 18.7338 4.40543 18.5705C4.676 18.4071 4.87231 18.1436 4.95033 17.8369C5.0284 17.53 4.98154 17.2049 4.81881 16.9337C4.65608 16.6624 4.39166 16.4687 4.08474 16.3941C3.77801 16.3196 3.45396 16.3702 3.18339 16.5336C2.91282 16.6969 2.71651 16.9604 2.63849 17.2671C2.56042 17.574 2.60728 17.8991 2.77001 18.1704Z" fill="black" stroke="white" stroke-width="0.75" stroke-linecap="square"/>
<path d="M18.8641 6.2331C19.0956 6.4505 19.4048 6.56398 19.7221 6.5508C20.039 6.53763 20.3382 6.39937 20.5554 6.16838C20.7726 5.9374 20.8921 5.63036 20.8856 5.31344C20.8791 4.99615 20.7465 4.69487 20.515 4.47747C20.2835 4.26007 19.9744 4.14659 19.6571 4.15977C19.3402 4.17294 19.041 4.3112 18.8238 4.54219C18.6066 4.77317 18.4871 5.08021 18.4936 5.39713C18.5001 5.71441 18.6327 6.0157 18.8641 6.2331Z" fill="black" stroke="white" stroke-width="0.75" stroke-linecap="square"/>
<path d="M4.5746 20.5225C4.80609 20.7399 5.11522 20.8533 5.43251 20.8402C5.74943 20.827 6.04865 20.6887 6.26586 20.4578C6.48306 20.2268 6.60256 19.9197 6.59604 19.6028C6.5895 19.2855 6.45697 18.9842 6.22547 18.7668C5.99398 18.5494 5.68485 18.436 5.36756 18.4491C5.05064 18.4623 4.75142 18.6006 4.53421 18.8316C4.31701 19.0625 4.1975 19.3696 4.20403 19.6865L4.57907 19.6788L4.20403 19.6865C4.21057 20.0038 4.3431 20.3051 4.5746 20.5225Z" fill="black" stroke="white" stroke-width="0.75" stroke-linecap="square"/>
<path d="M17.0285 4.82949C17.3136 4.97577 17.6461 4.99836 17.9514 4.89635C18.2562 4.79452 18.5093 4.5771 18.6583 4.29416C18.8072 4.01121 18.8418 3.68169 18.7511 3.37691C18.6601 3.07158 18.4503 2.81595 18.1652 2.66967C17.8801 2.52339 17.5476 2.50081 17.2423 2.60282C16.9375 2.70464 16.6844 2.92206 16.5355 3.20501C16.3865 3.48795 16.3519 3.81747 16.4426 4.12225C16.5336 4.42758 16.7434 4.68321 17.0285 4.82949Z" fill="black" stroke="white" stroke-width="0.75" stroke-linecap="square"/>
<path d="M6.9245 22.3303C7.20961 22.4766 7.54206 22.4992 7.84739 22.3972C8.15217 22.2954 8.40534 22.078 8.55425 21.795C8.70316 21.5121 8.73784 21.1825 8.64706 20.8778C8.55611 20.5724 8.34631 20.3168 8.0612 20.1705C7.77609 20.0242 7.44364 20.0017 7.13831 20.1037C6.83353 20.2055 6.58036 20.4229 6.43145 20.7059C6.28254 20.9888 6.24786 21.3183 6.33864 21.6231C6.42959 21.9284 6.63939 22.1841 6.9245 22.3303Z" fill="black" stroke="white" stroke-width="0.75" stroke-linecap="square"/>
<path d="M14.8906 3.95883C15.2111 4.01882 15.5439 3.94262 15.8156 3.75356C16.0866 3.565 16.2754 3.27964 16.3456 2.96207C16.4158 2.64451 16.3632 2.31395 16.1938 2.04295C16.0239 1.77123 15.7499 1.58144 15.4294 1.52145C15.1089 1.46146 14.7761 1.53766 14.5044 1.72672C14.2334 1.91528 14.0446 2.20064 13.9744 2.51821C13.9042 2.83577 13.9569 3.16633 14.1263 3.43733C14.2961 3.70904 14.5702 3.89884 14.8906 3.95883Z" fill="black" stroke="white" stroke-width="0.75" stroke-linecap="square"/>
<path d="M9.66027 23.4785C9.98073 23.5385 10.3136 23.4623 10.5853 23.2732C10.8563 23.0847 11.0451 22.7993 11.1153 22.4817C11.1855 22.1642 11.1328 21.8336 10.9634 21.5626C10.7935 21.2909 10.5195 21.1011 10.1991 21.0411C9.8786 20.9811 9.54576 21.0573 9.27405 21.2464C9.00305 21.4349 8.81425 21.7203 8.74405 22.0379C8.67386 22.3554 8.72651 22.686 8.89592 22.957C9.06578 23.2287 9.33982 23.4185 9.66027 23.4785Z" fill="black" stroke="white" stroke-width="0.75" stroke-linecap="square"/>
</g>
<defs>
<clipPath id="clip0">
<rect width="25" height="25" fill="white"/>
</clipPath>
</defs>
</svg>
