<svg width="25" height="25" viewBox="0 0 25 25" fill="none" xmlns="http://www.w3.org/2000/svg">
<g clip-path="url(#clip0)">
<path d="M6.84987 1.5H6.5613L6.41694 1.74987L0.567065 11.8749L0.422546 12.125L0.567065 12.3751L6.41694 22.5001L6.5613 22.75H6.84987H18.5489H18.8374L18.9818 22.5001L24.8317 12.3751L24.9762 12.125L24.8317 11.8749L18.9818 1.74987L18.8374 1.5H18.5489H6.84987ZM7.82999 20.5518L2.96129 12.125L7.82999 3.69822H17.5687L22.4374 12.125L17.5687 20.5518H7.82999Z" fill="black" stroke="white"/>
<path d="M14.9844 12.125C14.9844 10.8631 13.9614 9.84006 12.6994 9.84006C11.4375 9.84006 10.4144 10.8631 10.4144 12.125C10.4144 13.387 11.4375 14.41 12.6994 14.41C13.9614 14.41 14.9844 13.387 14.9844 12.125Z" fill="black" stroke="white"/>
</g>
<defs>
<clipPath id="clip0">
<rect width="25" height="25" fill="white"/>
</clipPath>
</defs>
</svg>
